<svg width="800" height="400" viewBox="0 0 800 400" xmlns="http://www.w3.org/2000/svg"><clipPath id="satori_cp-id"><rect x="0" y="0" width="800" height="400"/></clipPath><mask id="satori_om-id"><rect x="0" y="0" width="800" height="400" fill="#fff"/></mask><rect x="0" y="0" width="800" height="400" fill="#0a0a0a"/><mask id="satori_om-id-0"><rect x="60" y="60" width="680" height="143" fill="#fff" mask="url(#satori_om-id)"/></mask><mask id="satori_om-id-0-0"><rect x="60" y="60" width="680" height="34" fill="#fff" mask="url(#satori_om-id)"/></mask><g mask="url(#satori_om-id)" clip-path="url(#satori_cp-id)"><path fill="#888" d="M64.9 87L62.5 87L62.5 66.6L69.3 66.6Q71.7 66.6 73.3 67.5Q74.8 68.4 75.5 69.8Q76.3 71.3 76.3 73.1L76.3 73.1Q76.3 74.9 75.5 76.4Q74.8 77.8 73.3 78.7Q71.8 79.6 69.4 79.6L69.4 79.6L64.5 79.6L64.5 77.4L69.3 77.4Q70.9 77.4 71.9 76.8Q72.9 76.2 73.4 75.3Q73.8 74.3 73.8 73.1L73.8 73.1Q73.8 71.9 73.4 70.9Q72.9 69.9 71.9 69.4Q70.9 68.8 69.3 68.8L69.3 68.8L64.9 68.8L64.9 87ZM101.4 76.8L101.4 76.8Q101.4 80.0 100.3 82.4Q99.1 84.7 97.1 86.0Q95.0 87.3 92.4 87.3L92.4 87.3Q89.8 87.3 87.8 86.0Q85.8 84.7 84.6 82.4Q83.4 80.0 83.4 76.8L83.4 76.8Q83.4 73.6 84.6 71.3Q85.8 68.9 87.8 67.6Q89.8 66.4 92.4 66.4L92.4 66.4Q95.0 66.4 97.1 67.6Q99.1 68.9 100.3 71.3Q101.4 73.6 101.4 76.8ZM99.0 76.8L99.0 76.8Q99.0 74.2 98.2 72.4Q97.3 70.5 95.8 69.6Q94.3 68.7 92.4 68.7L92.4 68.7Q90.6 68.7 89.1 69.6Q87.6 70.5 86.7 72.4Q85.8 74.2 85.8 76.8L85.8 76.8Q85.8 79.5 86.7 81.3Q87.6 83.1 89.1 84.0Q90.6 85.0 92.4 85.0L92.4 85.0Q94.3 85.0 95.8 84.0Q97.3 83.1 98.2 81.3Q99.0 79.5 99.0 76.8ZM112.0 87L109.6 87L109.6 66.6L116.4 66.6Q118.8 66.6 120.4 67.4Q121.9 68.3 122.6 69.7Q123.4 71.1 123.4 72.9L123.4 72.9Q123.4 74.7 122.6 76.1Q121.9 77.5 120.4 78.3Q118.8 79.0 116.5 79.0L116.5 79.0L110.9 79.0L110.9 76.8L116.4 76.8Q118.0 76.8 119.0 76.3Q120.0 75.9 120.5 75.0Q120.9 74.1 120.9 72.9L120.9 72.9Q120.9 71.7 120.5 70.7Q120.0 69.8 119.0 69.3Q118.0 68.8 116.4 68.8L116.4 68.8L112.0 68.8L112.0 87ZM116.4 77.9L119.1 77.9L124.2 87L121.3 87L116.4 77.9ZM136.8 68.8L130.3 68.8L130.3 66.6L145.6 66.6L145.6 68.8L139.2 68.8L139.2 87L136.8 87L136.8 68.8ZM155.9 87L153.4 87L153.4 66.6L165.6 66.6L165.6 68.8L155.9 68.8L155.9 75.7L164.7 75.7L164.7 77.9L155.9 77.9L155.9 87ZM191.0 76.8L191.0 76.8Q191.0 80.0 189.9 82.4Q188.7 84.7 186.7 86.0Q184.7 87.3 182.1 87.3L182.1 87.3Q179.5 87.3 177.4 86.0Q175.4 84.7 174.2 82.4Q173.1 80.0 173.1 76.8L173.1 76.8Q173.1 73.6 174.2 71.3Q175.4 68.9 177.4 67.6Q179.5 66.4 182.1 66.4L182.1 66.4Q184.7 66.4 186.7 67.6Q188.7 68.9 189.9 71.3Q191.0 73.6 191.0 76.8ZM188.7 76.8L188.7 76.8Q188.7 74.2 187.8 72.4Q186.9 70.5 185.4 69.6Q183.9 68.7 182.1 68.7L182.1 68.7Q180.2 68.7 178.7 69.6Q177.2 70.5 176.3 72.4Q175.5 74.2 175.5 76.8L175.5 76.8Q175.5 79.5 176.3 81.3Q177.2 83.1 178.7 84.0Q180.2 85.0 182.1 85.0L182.1 85.0Q183.9 85.0 185.4 84.0Q186.9 83.1 187.8 81.3Q188.7 79.5 188.7 76.8ZM211.1 87L199.2 87L199.2 66.6L201.6 66.6L201.6 84.8L211.1 84.8L211.1 87ZM218.9 66.6L221.4 66.6L221.4 87L218.9 87L218.9 66.6ZM247.5 76.8L247.5 76.8Q247.5 80.0 246.3 82.4Q245.2 84.7 243.2 86.0Q241.1 87.3 238.5 87.3L238.5 87.3Q235.9 87.3 233.9 86.0Q231.9 84.7 230.7 82.4Q229.5 80.0 229.5 76.8L229.5 76.8Q229.5 73.6 230.7 71.3Q231.9 68.9 233.9 67.6Q235.9 66.4 238.5 66.4L238.5 66.4Q241.1 66.4 243.2 67.6Q245.2 68.9 246.3 71.3Q247.5 73.6 247.5 76.8ZM245.1 76.8L245.1 76.8Q245.1 74.2 244.2 72.4Q243.4 70.5 241.9 69.6Q240.4 68.7 238.5 68.7L238.5 68.7Q236.7 68.7 235.2 69.6Q233.7 70.5 232.8 72.4Q231.9 74.2 231.9 76.8L231.9 76.8Q231.9 79.5 232.8 81.3Q233.7 83.1 235.2 84.0Q236.7 85.0 238.5 85.0L238.5 85.0Q240.4 85.0 241.9 84.0Q243.4 83.1 244.2 81.3Q245.1 79.5 245.1 76.8Z "/></g><mask id="satori_om-id-0-1"><rect x="60" y="114" width="680" height="79" fill="#fff" mask="url(#satori_om-id)"/></mask><g mask="url(#satori_om-id)" clip-path="url(#satori_cp-id)"><path fill="white" d="M85.5 164.1L85.5 127.6L96.5 127.6L96.5 164.1Q96.5 169.2 94.2 172.9Q91.9 176.7 87.9 178.7Q83.9 180.7 78.6 180.7L78.6 180.7Q73.9 180.7 70.0 179.0Q66.2 177.4 63.9 173.9Q61.7 170.5 61.7 165.3L61.7 165.3L72.7 165.3Q72.8 167.3 73.6 168.8Q74.4 170.3 75.8 171.1Q77.2 171.8 79.2 171.8L79.2 171.8Q81.2 171.8 82.6 171.0Q84.0 170.1 84.8 168.4Q85.5 166.7 85.5 164.1L85.5 164.1ZM130.6 163.3L130.6 163.3L130.6 140.7L141.5 140.7L141.5 180L131.0 180L131.0 172.9L130.6 172.9Q129.3 176.3 126.2 178.4Q123.1 180.5 118.7 180.5L118.7 180.5Q114.7 180.5 111.8 178.7Q108.8 176.9 107.1 173.6Q105.4 170.3 105.4 165.7L105.4 165.7L105.4 140.7L116.3 140.7L116.3 163.8Q116.3 167.3 118.1 169.3Q120.0 171.3 123.1 171.3L123.1 171.3Q125.0 171.3 126.8 170.4Q128.5 169.5 129.5 167.7Q130.6 165.9 130.6 163.3ZM161.4 180.7L161.4 180.7Q157.6 180.7 154.7 179.4Q151.7 178.1 150.0 175.5Q148.3 172.9 148.3 169.0L148.3 169.0Q148.3 165.8 149.5 163.5Q150.7 161.3 152.8 160.0Q154.9 158.6 157.5 157.9Q160.2 157.2 163.1 156.9L163.1 156.9Q166.5 156.6 168.6 156.3Q170.7 155.9 171.6 155.3Q172.6 154.7 172.6 153.4L172.6 153.4L172.6 153.3Q172.6 150.8 171.1 149.5Q169.5 148.2 166.7 148.2L166.7 148.2Q163.8 148.2 162.1 149.5Q160.3 150.8 159.8 152.7L159.8 152.7L149.7 151.9Q150.5 148.3 152.7 145.7Q155.0 143.1 158.5 141.6Q162.1 140.2 166.8 140.2L166.8 140.2Q170.1 140.2 173.1 141.0Q176.1 141.8 178.4 143.4Q180.8 145.0 182.1 147.5Q183.5 150.0 183.5 153.5L183.5 153.5L183.5 180L173.1 180L173.1 174.6L172.8 174.6Q171.9 176.4 170.3 177.8Q168.7 179.2 166.5 180.0Q164.3 180.7 161.4 180.7ZM164.5 173.2L164.5 173.2Q166.9 173.2 168.7 172.3Q170.6 171.3 171.6 169.7Q172.7 168.0 172.7 166.0L172.7 166.0L172.7 161.8Q172.1 162.1 171.3 162.4Q170.4 162.7 169.3 162.9Q168.2 163.1 167.1 163.3Q166.0 163.4 165.1 163.6L165.1 163.6Q163.2 163.8 161.7 164.5Q160.3 165.1 159.5 166.1Q158.7 167.1 158.7 168.7L158.7 168.7Q158.7 170.9 160.3 172.1Q162.0 173.2 164.5 173.2ZM202.8 157.3L202.8 157.3L202.8 180L191.9 180L191.9 140.7L202.3 140.7L202.3 147.7L202.8 147.7Q204.1 144.2 207.1 142.2Q210.2 140.2 214.6 140.2L214.6 140.2Q218.7 140.2 221.7 142.0Q224.8 143.8 226.4 147.1Q228.1 150.4 228.1 155.0L228.1 155.0L228.1 180L217.2 180L217.2 156.9Q217.3 153.3 215.4 151.3Q213.5 149.3 210.3 149.3L210.3 149.3Q208.1 149.3 206.4 150.2Q204.7 151.2 203.8 153.0Q202.8 154.8 202.8 157.3Z M292.6 142.7L282.0 142.7Q281.7 139.6 279.4 137.9Q277.0 136.2 273.1 136.2L273.1 136.2Q270.3 136.2 268.5 136.9Q266.6 137.7 265.6 139.0Q264.6 140.3 264.6 142.0L264.6 142.0Q264.6 143.4 265.2 144.5Q265.9 145.5 267.1 146.3Q268.2 147.0 269.7 147.6Q271.2 148.1 272.9 148.5L272.9 148.5L277.6 149.7Q281.1 150.4 283.9 151.7Q286.8 153.0 288.9 154.8Q291.0 156.7 292.1 159.2Q293.3 161.8 293.3 165.0L293.3 165.0Q293.3 169.8 290.9 173.4Q288.5 176.9 283.9 178.8Q279.4 180.7 273.0 180.7L273.0 180.7Q266.7 180.7 262.0 178.8Q257.3 176.9 254.7 173.0Q252.0 169.2 251.9 163.6L251.9 163.6L262.6 163.6Q262.8 166.2 264.1 167.9Q265.5 169.7 267.8 170.6Q270.0 171.5 272.9 171.5L272.9 171.5Q275.7 171.5 277.8 170.6Q279.9 169.8 281.0 168.4Q282.2 166.9 282.2 165.0L282.2 165.0Q282.2 163.3 281.1 162.1Q280.1 160.8 278.1 160.0Q276.1 159.2 273.3 158.5L273.3 158.5L267.6 157.0Q260.9 155.4 257.1 152.0Q253.3 148.6 253.3 142.8L253.3 142.8Q253.3 138.0 255.8 134.5Q258.4 130.9 262.9 128.9Q267.4 126.9 273.1 126.9L273.1 126.9Q279.0 126.9 283.3 128.9Q287.7 130.9 290.1 134.5Q292.5 138.0 292.6 142.7L292.6 142.7ZM318.3 180.8L318.3 180.8Q312.3 180.8 308.0 178.2Q303.7 175.7 301.3 171.1Q299.0 166.6 299.0 160.5L299.0 160.5Q299.0 154.4 301.3 149.9Q303.7 145.3 308.0 142.8Q312.3 140.2 318.3 140.2L318.3 140.2Q324.2 140.2 328.6 142.8Q332.9 145.3 335.3 149.9Q337.6 154.4 337.6 160.5L337.6 160.5Q337.6 166.6 335.3 171.1Q332.9 175.7 328.6 178.2Q324.2 180.8 318.3 180.8ZM318.3 172.3L318.3 172.3Q321.1 172.3 322.9 170.8Q324.7 169.2 325.6 166.6Q326.5 163.9 326.5 160.4L326.5 160.4Q326.5 157.0 325.6 154.3Q324.7 151.6 322.9 150.1Q321.1 148.5 318.3 148.5L318.3 148.5Q315.6 148.5 313.8 150.1Q311.9 151.6 311.0 154.3Q310.0 157.0 310.0 160.4L310.0 160.4Q310.0 163.9 311.0 166.6Q311.9 169.2 313.8 170.8Q315.6 172.3 318.3 172.3ZM355.7 180L344.9 180L344.9 127.6L355.8 127.6L355.8 147.3L356.2 147.3Q356.9 145.7 358.2 144.1Q359.6 142.4 361.8 141.3Q364.0 140.2 367.3 140.2L367.3 140.2Q371.6 140.2 375.3 142.5Q378.9 144.7 381.1 149.2Q383.2 153.7 383.2 160.4L383.2 160.4Q383.2 167.0 381.1 171.5Q379.0 176.0 375.4 178.3Q371.8 180.6 367.3 180.6L367.3 180.6Q364.1 180.6 361.9 179.6Q359.7 178.5 358.3 176.9Q356.9 175.3 356.2 173.7L356.2 173.7L355.7 173.7L355.7 180ZM355.6 160.4L355.6 160.4Q355.6 163.9 356.6 166.5Q357.5 169.1 359.4 170.5Q361.2 172.0 363.9 172.0L363.9 172.0Q366.5 172.0 368.4 170.5Q370.2 169.0 371.2 166.4Q372.1 163.8 372.1 160.4L372.1 160.4Q372.1 157.0 371.2 154.4Q370.2 151.8 368.4 150.3Q366.5 148.9 363.9 148.9L363.9 148.9Q361.2 148.9 359.4 150.3Q357.5 151.7 356.6 154.3Q355.6 156.9 355.6 160.4ZM401.7 180.7L401.7 180.7Q397.9 180.7 395.0 179.4Q392.0 178.1 390.3 175.5Q388.6 172.9 388.6 169.0L388.6 169.0Q388.6 165.8 389.8 163.5Q391.0 161.3 393.1 160.0Q395.2 158.6 397.8 157.9Q400.5 157.2 403.4 156.9L403.4 156.9Q406.8 156.6 408.9 156.3Q411.0 155.9 411.9 155.3Q412.9 154.7 412.9 153.4L412.9 153.4L412.9 153.3Q412.9 150.8 411.4 149.5Q409.8 148.2 407.1 148.2L407.1 148.2Q404.1 148.2 402.4 149.5Q400.6 150.8 400.1 152.7L400.1 152.7L390.0 151.9Q390.8 148.3 393.0 145.7Q395.3 143.1 398.8 141.6Q402.4 140.2 407.1 140.2L407.1 140.2Q410.4 140.2 413.4 141.0Q416.4 141.8 418.7 143.4Q421.1 145.0 422.4 147.5Q423.8 150.0 423.8 153.5L423.8 153.5L423.8 180L413.5 180L413.5 174.6L413.1 174.6Q412.2 176.4 410.6 177.8Q409.0 179.2 406.8 180.0Q404.6 180.7 401.7 180.7ZM404.8 173.2L404.8 173.2Q407.2 173.2 409.0 172.3Q410.9 171.3 411.9 169.7Q413.0 168.0 413.0 166.0L413.0 166.0L413.0 161.8Q412.5 162.1 411.6 162.4Q410.7 162.7 409.6 162.9Q408.5 163.1 407.4 163.3Q406.3 163.4 405.4 163.6L405.4 163.6Q403.5 163.8 402.1 164.5Q400.6 165.1 399.8 166.1Q399.0 167.1 399.0 168.7L399.0 168.7Q399.0 170.9 400.7 172.1Q402.3 173.2 404.8 173.2ZM432.2 127.6L443.1 127.6L443.1 180L432.2 180L432.2 127.6ZM476.9 140.7L488.4 140.7L474.7 180L462.4 180L448.7 140.7L460.2 140.7L468.4 168.8L468.8 168.8L476.9 140.7ZM504.1 180.7L504.1 180.7Q500.4 180.7 497.4 179.4Q494.5 178.1 492.8 175.5Q491.1 172.9 491.1 169.0L491.1 169.0Q491.1 165.8 492.3 163.5Q493.5 161.3 495.6 160.0Q497.6 158.6 500.3 157.9Q502.9 157.2 505.8 156.9L505.8 156.9Q509.3 156.6 511.4 156.3Q513.5 155.9 514.4 155.3Q515.3 154.7 515.3 153.4L515.3 153.4L515.3 153.3Q515.3 150.8 513.8 149.5Q512.3 148.2 509.5 148.2L509.5 148.2Q506.6 148.2 504.8 149.5Q503.1 150.8 502.5 152.7L502.5 152.7L492.5 151.9Q493.2 148.3 495.5 145.7Q497.7 143.1 501.3 141.6Q504.9 140.2 509.6 140.2L509.6 140.2Q512.8 140.2 515.8 141.0Q518.8 141.8 521.2 143.4Q523.5 145.0 524.9 147.5Q526.2 150.0 526.2 153.5L526.2 153.5L526.2 180L515.9 180L515.9 174.6L515.6 174.6Q514.7 176.4 513.1 177.8Q511.5 179.2 509.3 180.0Q507.0 180.7 504.1 180.7ZM507.2 173.2L507.2 173.2Q509.6 173.2 511.5 172.3Q513.3 171.3 514.4 169.7Q515.4 168.0 515.4 166.0L515.4 166.0L515.4 161.8Q514.9 162.1 514.0 162.4Q513.1 162.7 512.0 162.9Q510.9 163.1 509.8 163.3Q508.7 163.4 507.9 163.6L507.9 163.6Q505.9 163.8 504.5 164.5Q503.1 165.1 502.3 166.1Q501.5 167.1 501.5 168.7L501.5 168.7Q501.5 170.9 503.1 172.1Q504.7 173.2 507.2 173.2ZM545.6 180L534.7 180L534.7 140.7L545.3 140.7L545.3 147.6L545.7 147.6Q546.7 143.9 549.3 142.0Q551.8 140.2 555.1 140.2L555.1 140.2Q555.9 140.2 556.9 140.3Q557.8 140.4 558.5 140.5L558.5 140.5L558.5 150.2Q557.8 150.0 556.4 149.8Q555.1 149.6 553.9 149.6L553.9 149.6Q551.5 149.6 549.6 150.7Q547.8 151.7 546.7 153.5Q545.6 155.4 545.6 157.8L545.6 157.8L545.6 180ZM575.0 180L564.1 180L564.1 140.7L574.7 140.7L574.7 147.6L575.1 147.6Q576.2 143.9 578.7 142.0Q581.2 140.2 584.5 140.2L584.5 140.2Q585.3 140.2 586.3 140.3Q587.2 140.4 588.0 140.5L588.0 140.5L588.0 150.2Q587.2 150.0 585.8 149.8Q584.5 149.6 583.4 149.6L583.4 149.6Q581.0 149.6 579.1 150.7Q577.2 151.7 576.1 153.5Q575.0 155.4 575.0 157.8L575.0 157.8L575.0 180ZM609.5 180.8L609.5 180.8Q603.5 180.8 599.2 178.2Q594.8 175.7 592.5 171.1Q590.1 166.6 590.1 160.5L590.1 160.5Q590.1 154.4 592.5 149.9Q594.8 145.3 599.2 142.8Q603.5 140.2 609.5 140.2L609.5 140.2Q615.4 140.2 619.8 142.8Q624.1 145.3 626.4 149.9Q628.8 154.4 628.8 160.5L628.8 160.5Q628.8 166.6 626.4 171.1Q624.1 175.7 619.8 178.2Q615.4 180.8 609.5 180.8ZM609.5 172.3L609.5 172.3Q612.2 172.3 614.0 170.8Q615.9 169.2 616.8 166.6Q617.7 163.9 617.7 160.4L617.7 160.4Q617.7 157.0 616.8 154.3Q615.9 151.6 614.0 150.1Q612.2 148.5 609.5 148.5L609.5 148.5Q606.8 148.5 604.9 150.1Q603.1 151.6 602.1 154.3Q601.2 157.0 601.2 160.4L601.2 160.4Q601.2 163.9 602.1 166.6Q603.1 169.2 604.9 170.8Q606.8 172.3 609.5 172.3Z "/></g><defs><pattern id="satori_pattern_id-1_0" x="0" y="0" width="1" height="1" patternUnits="objectBoundingBox"><radialGradient id="satori_radial_id-1_0" spreadMethod="pad"><stop offset="0" stop-color="rgba(59,130,246,0.9)"/><stop offset="0.35" stop-color="rgba(59,130,246,0.2)"/><stop offset="0.7" stop-color="transparent"/><stop offset="1" stop-color="transparent"/></radialGradient><mask id="satori_mask_id-1_0"><rect x="0" y="0" width="700" height="700" fill="#fff"/></mask><rect x="0" y="0" width="700" height="700" fill="transparent"/><circle cx="350" cy="350" width="700" height="700" r="494.9747468305833" fill="url(#satori_radial_id-1_0)" mask="url(#satori_mask_id-1_0)"/></pattern></defs><mask id="satori_om-id-1"><rect x="400" y="320" width="700" height="700" fill="#fff" mask="url(#satori_om-id)"/></mask><g opacity="0.9"><g clip-path="url(#satori_cp-id)" mask="url(#satori_om-id)"><path x="400" y="320" width="700" height="700" fill="url(#satori_pattern_id-1_0)" d="M750,320 h0 a350,350 0 0 1 350,350 v0 a350,350 0 0 1 -350,350 h0 a350,350 0 0 1 -350,-350 v0 a350,350 0 0 1 350,-350" transform="matrix(1.00,0.00,0.00,1.00,0.00,-350.00)" style="filter:blur(40px)"/></g></g></svg>