<?xml version="1.0" standalone="no"?>
<!DOCTYPE svg PUBLIC "-//W3C//DTD SVG 20010904//EN"
 "http://www.w3.org/TR/2001/REC-SVG-20010904/DTD/svg10.dtd">
<svg version="1.0" xmlns="http://www.w3.org/2000/svg"
 width="800" height="800" viewBox="0 0 800 800"
 preserveAspectRatio="xMidYMid meet">

<g transform="translate(0.000000,800.000000) scale(0.010000,-0.010000)"
fill="#000000" stroke="none">
<path d="M23000 68000 l0 -3000 -1500 0 -1500 0 0 500 0 500 -1000 0 -1000 0
0 -500 0 -500 500 0 500 0 0 -500 0 -500 2500 0 2500 0 0 500 0 500 500 0 500
0 0 3000 0 3000 -1000 0 -1000 0 0 -3000z"/>
<path d="M35000 70500 l0 -500 -500 0 -500 0 0 -1000 0 -1000 500 0 500 0 0
-500 0 -500 2500 0 2500 0 0 -1000 0 -1000 -2000 0 -2000 0 0 500 0 500 -1000
0 -1000 0 0 -500 0 -500 500 0 500 0 0 -500 0 -500 3000 0 3000 0 0 500 0 500
500 0 500 0 0 1000 0 1000 -500 0 -500 0 0 500 0 500 -2500 0 -2500 0 0 1000
0 1000 2000 0 2000 0 0 -500 0 -500 1000 0 1000 0 0 500 0 500 -500 0 -500 0
0 500 0 500 -3000 0 -3000 0 0 -500z"/>
<path d="M26000 67000 l0 -2000 500 0 500 0 0 -500 0 -500 3000 0 3000 0 0
2500 0 2500 -1000 0 -1000 0 0 -2000 0 -2000 -1500 0 -1500 0 0 2000 0 2000
-1000 0 -1000 0 0 -2000z"/>
<path d="M44000 68500 l0 -500 -500 0 -500 0 0 -1500 0 -1500 500 0 500 0 0
-500 0 -500 2500 0 2500 0 0 500 0 500 500 0 500 0 0 1500 0 1500 -500 0 -500
0 0 500 0 500 -2500 0 -2500 0 0 -500z m4000 -2000 l0 -1500 -1500 0 -1500 0
0 1500 0 1500 1500 0 1500 0 0 -1500z"/>
</g>
</svg>
